<mxfile host="app.diagrams.net" agent="Mozilla/5.0 (Windows NT 10.0; Win64; x64) AppleWebKit/537.36 (KHTML, like Gecko) Chrome/116.0.0.0 Safari/537.36" version="24.7.17">
  <diagram name="第 1 页" id="lnjwtBa-JkBaRmDAoZbX">
    <mxGraphModel dx="875" dy="445" grid="1" gridSize="10" guides="1" tooltips="1" connect="1" arrows="1" fold="1" page="1" pageScale="1" pageWidth="827" pageHeight="1169" math="0" shadow="0">
      <root>
        <mxCell id="0" />
        <mxCell id="1" parent="0" />
        <mxCell id="OqtR3Mtmg-c2K8xWfE8R-6" style="edgeStyle=orthogonalEdgeStyle;rounded=0;orthogonalLoop=1;jettySize=auto;html=1;exitX=0.5;exitY=1;exitDx=0;exitDy=0;entryX=0.5;entryY=0;entryDx=0;entryDy=0;fontSize=10;" edge="1" parent="1" source="OqtR3Mtmg-c2K8xWfE8R-2" target="OqtR3Mtmg-c2K8xWfE8R-3">
          <mxGeometry relative="1" as="geometry" />
        </mxCell>
        <mxCell id="OqtR3Mtmg-c2K8xWfE8R-7" style="edgeStyle=orthogonalEdgeStyle;rounded=0;orthogonalLoop=1;jettySize=auto;html=1;exitX=0.5;exitY=1;exitDx=0;exitDy=0;entryX=0.5;entryY=0;entryDx=0;entryDy=0;fontSize=10;" edge="1" parent="1" source="OqtR3Mtmg-c2K8xWfE8R-2" target="OqtR3Mtmg-c2K8xWfE8R-4">
          <mxGeometry relative="1" as="geometry" />
        </mxCell>
        <mxCell id="OqtR3Mtmg-c2K8xWfE8R-8" style="edgeStyle=orthogonalEdgeStyle;rounded=0;orthogonalLoop=1;jettySize=auto;html=1;exitX=0.5;exitY=1;exitDx=0;exitDy=0;entryX=0.5;entryY=0;entryDx=0;entryDy=0;fontSize=10;" edge="1" parent="1" source="OqtR3Mtmg-c2K8xWfE8R-2" target="OqtR3Mtmg-c2K8xWfE8R-5">
          <mxGeometry relative="1" as="geometry" />
        </mxCell>
        <mxCell id="OqtR3Mtmg-c2K8xWfE8R-2" value="nus" style="rounded=0;whiteSpace=wrap;html=1;fontSize=10;" vertex="1" parent="1">
          <mxGeometry x="383" y="200" width="60" height="30" as="geometry" />
        </mxCell>
        <mxCell id="OqtR3Mtmg-c2K8xWfE8R-11" style="edgeStyle=orthogonalEdgeStyle;rounded=0;orthogonalLoop=1;jettySize=auto;html=1;exitX=0.5;exitY=1;exitDx=0;exitDy=0;entryX=0.5;entryY=0;entryDx=0;entryDy=0;fontSize=10;" edge="1" parent="1" source="OqtR3Mtmg-c2K8xWfE8R-3" target="OqtR3Mtmg-c2K8xWfE8R-9">
          <mxGeometry relative="1" as="geometry" />
        </mxCell>
        <mxCell id="OqtR3Mtmg-c2K8xWfE8R-12" style="edgeStyle=orthogonalEdgeStyle;rounded=0;orthogonalLoop=1;jettySize=auto;html=1;exitX=0.5;exitY=1;exitDx=0;exitDy=0;entryX=0.5;entryY=0;entryDx=0;entryDy=0;fontSize=10;" edge="1" parent="1" source="OqtR3Mtmg-c2K8xWfE8R-3" target="OqtR3Mtmg-c2K8xWfE8R-10">
          <mxGeometry relative="1" as="geometry" />
        </mxCell>
        <mxCell id="OqtR3Mtmg-c2K8xWfE8R-3" value="mcomp" style="rounded=0;whiteSpace=wrap;html=1;fontSize=10;" vertex="1" parent="1">
          <mxGeometry x="290" y="270" width="60" height="30" as="geometry" />
        </mxCell>
        <mxCell id="OqtR3Mtmg-c2K8xWfE8R-14" style="edgeStyle=orthogonalEdgeStyle;rounded=0;orthogonalLoop=1;jettySize=auto;html=1;exitX=0.5;exitY=1;exitDx=0;exitDy=0;fontSize=10;" edge="1" parent="1" source="OqtR3Mtmg-c2K8xWfE8R-4" target="OqtR3Mtmg-c2K8xWfE8R-13">
          <mxGeometry relative="1" as="geometry" />
        </mxCell>
        <mxCell id="OqtR3Mtmg-c2K8xWfE8R-4" value="math" style="rounded=0;whiteSpace=wrap;html=1;fontSize=10;" vertex="1" parent="1">
          <mxGeometry x="383" y="270" width="60" height="30" as="geometry" />
        </mxCell>
        <mxCell id="OqtR3Mtmg-c2K8xWfE8R-16" style="edgeStyle=orthogonalEdgeStyle;rounded=0;orthogonalLoop=1;jettySize=auto;html=1;exitX=0.5;exitY=1;exitDx=0;exitDy=0;entryX=0.5;entryY=0;entryDx=0;entryDy=0;fontSize=10;" edge="1" parent="1" source="OqtR3Mtmg-c2K8xWfE8R-5" target="OqtR3Mtmg-c2K8xWfE8R-15">
          <mxGeometry relative="1" as="geometry" />
        </mxCell>
        <mxCell id="OqtR3Mtmg-c2K8xWfE8R-18" style="edgeStyle=orthogonalEdgeStyle;rounded=0;orthogonalLoop=1;jettySize=auto;html=1;exitX=0.5;exitY=1;exitDx=0;exitDy=0;entryX=0.5;entryY=0;entryDx=0;entryDy=0;fontSize=10;" edge="1" parent="1" source="OqtR3Mtmg-c2K8xWfE8R-5" target="OqtR3Mtmg-c2K8xWfE8R-17">
          <mxGeometry relative="1" as="geometry" />
        </mxCell>
        <mxCell id="OqtR3Mtmg-c2K8xWfE8R-5" value="economics" style="rounded=0;whiteSpace=wrap;html=1;fontSize=10;" vertex="1" parent="1">
          <mxGeometry x="480" y="270" width="60" height="30" as="geometry" />
        </mxCell>
        <mxCell id="OqtR3Mtmg-c2K8xWfE8R-9" value="cs132" style="rounded=0;whiteSpace=wrap;html=1;fontSize=10;" vertex="1" parent="1">
          <mxGeometry x="260" y="340" width="50" height="30" as="geometry" />
        </mxCell>
        <mxCell id="OqtR3Mtmg-c2K8xWfE8R-10" value="cs243" style="rounded=0;whiteSpace=wrap;html=1;fontSize=10;" vertex="1" parent="1">
          <mxGeometry x="320" y="340" width="50" height="30" as="geometry" />
        </mxCell>
        <mxCell id="OqtR3Mtmg-c2K8xWfE8R-13" value="ma156" style="rounded=0;whiteSpace=wrap;html=1;fontSize=10;" vertex="1" parent="1">
          <mxGeometry x="388" y="340" width="50" height="30" as="geometry" />
        </mxCell>
        <mxCell id="OqtR3Mtmg-c2K8xWfE8R-15" value="ec162" style="rounded=0;whiteSpace=wrap;html=1;fontSize=10;" vertex="1" parent="1">
          <mxGeometry x="460" y="340" width="50" height="30" as="geometry" />
        </mxCell>
        <mxCell id="OqtR3Mtmg-c2K8xWfE8R-17" value="ec243" style="rounded=0;whiteSpace=wrap;html=1;fontSize=10;" vertex="1" parent="1">
          <mxGeometry x="520" y="340" width="50" height="30" as="geometry" />
        </mxCell>
        <mxCell id="OqtR3Mtmg-c2K8xWfE8R-19" value="group (hierarchical)" style="text;html=1;align=center;verticalAlign=middle;whiteSpace=wrap;rounded=0;fontSize=10;" vertex="1" parent="1">
          <mxGeometry x="280" y="170" width="60" height="30" as="geometry" />
        </mxCell>
        <mxCell id="OqtR3Mtmg-c2K8xWfE8R-23" style="edgeStyle=orthogonalEdgeStyle;rounded=0;orthogonalLoop=1;jettySize=auto;html=1;exitX=0.5;exitY=1;exitDx=0;exitDy=0;entryX=0.5;entryY=0;entryDx=0;entryDy=0;fontSize=10;" edge="1" parent="1" source="OqtR3Mtmg-c2K8xWfE8R-21" target="OqtR3Mtmg-c2K8xWfE8R-22">
          <mxGeometry relative="1" as="geometry" />
        </mxCell>
        <mxCell id="OqtR3Mtmg-c2K8xWfE8R-25" style="edgeStyle=orthogonalEdgeStyle;rounded=0;orthogonalLoop=1;jettySize=auto;html=1;exitX=0.5;exitY=1;exitDx=0;exitDy=0;entryX=0.5;entryY=0;entryDx=0;entryDy=0;fontSize=10;" edge="1" parent="1" source="OqtR3Mtmg-c2K8xWfE8R-21" target="OqtR3Mtmg-c2K8xWfE8R-24">
          <mxGeometry relative="1" as="geometry" />
        </mxCell>
        <mxCell id="OqtR3Mtmg-c2K8xWfE8R-27" style="edgeStyle=orthogonalEdgeStyle;rounded=0;orthogonalLoop=1;jettySize=auto;html=1;exitX=0.5;exitY=1;exitDx=0;exitDy=0;entryX=0.5;entryY=0;entryDx=0;entryDy=0;fontSize=10;" edge="1" parent="1" source="OqtR3Mtmg-c2K8xWfE8R-21" target="OqtR3Mtmg-c2K8xWfE8R-26">
          <mxGeometry relative="1" as="geometry" />
        </mxCell>
        <mxCell id="OqtR3Mtmg-c2K8xWfE8R-29" style="edgeStyle=orthogonalEdgeStyle;rounded=0;orthogonalLoop=1;jettySize=auto;html=1;exitX=0.5;exitY=1;exitDx=0;exitDy=0;entryX=0.5;entryY=0;entryDx=0;entryDy=0;fontSize=10;" edge="1" parent="1" source="OqtR3Mtmg-c2K8xWfE8R-21" target="OqtR3Mtmg-c2K8xWfE8R-28">
          <mxGeometry relative="1" as="geometry" />
        </mxCell>
        <mxCell id="OqtR3Mtmg-c2K8xWfE8R-31" style="edgeStyle=orthogonalEdgeStyle;rounded=0;orthogonalLoop=1;jettySize=auto;html=1;exitX=0.5;exitY=1;exitDx=0;exitDy=0;entryX=0.5;entryY=0;entryDx=0;entryDy=0;fontSize=10;" edge="1" parent="1" source="OqtR3Mtmg-c2K8xWfE8R-21" target="OqtR3Mtmg-c2K8xWfE8R-30">
          <mxGeometry relative="1" as="geometry" />
        </mxCell>
        <mxCell id="OqtR3Mtmg-c2K8xWfE8R-21" value="&lt;font style=&quot;font-size: 11px;&quot;&gt;银行董事&lt;/font&gt;" style="rounded=0;whiteSpace=wrap;html=1;fontSize=10;" vertex="1" parent="1">
          <mxGeometry x="378" y="470" width="60" height="30" as="geometry" />
        </mxCell>
        <mxCell id="OqtR3Mtmg-c2K8xWfE8R-50" style="edgeStyle=orthogonalEdgeStyle;rounded=0;orthogonalLoop=1;jettySize=auto;html=1;exitX=0.5;exitY=1;exitDx=0;exitDy=0;entryX=0.5;entryY=0;entryDx=0;entryDy=0;fontSize=10;" edge="1" parent="1" source="OqtR3Mtmg-c2K8xWfE8R-22" target="OqtR3Mtmg-c2K8xWfE8R-49">
          <mxGeometry relative="1" as="geometry" />
        </mxCell>
        <mxCell id="OqtR3Mtmg-c2K8xWfE8R-22" value="高级交易" style="rounded=0;whiteSpace=wrap;html=1;fontSize=10;" vertex="1" parent="1">
          <mxGeometry x="233" y="540" width="60" height="30" as="geometry" />
        </mxCell>
        <mxCell id="OqtR3Mtmg-c2K8xWfE8R-24" value="财务分析" style="rounded=0;whiteSpace=wrap;html=1;fontSize=10;" vertex="1" parent="1">
          <mxGeometry x="311" y="540" width="60" height="30" as="geometry" />
        </mxCell>
        <mxCell id="OqtR3Mtmg-c2K8xWfE8R-26" value="借贷" style="rounded=0;whiteSpace=wrap;html=1;fontSize=10;" vertex="1" parent="1">
          <mxGeometry x="388" y="540" width="60" height="30" as="geometry" />
        </mxCell>
        <mxCell id="OqtR3Mtmg-c2K8xWfE8R-28" value="人力资源" style="rounded=0;whiteSpace=wrap;html=1;fontSize=10;" vertex="1" parent="1">
          <mxGeometry x="463" y="540" width="60" height="30" as="geometry" />
        </mxCell>
        <mxCell id="OqtR3Mtmg-c2K8xWfE8R-30" value="客服" style="rounded=0;whiteSpace=wrap;html=1;fontSize=10;" vertex="1" parent="1">
          <mxGeometry x="535" y="540" width="60" height="30" as="geometry" />
        </mxCell>
        <mxCell id="OqtR3Mtmg-c2K8xWfE8R-32" value="个人账户信息表" style="swimlane;fontStyle=0;childLayout=stackLayout;horizontal=1;startSize=30;horizontalStack=0;resizeParent=1;resizeParentMax=0;resizeLast=0;collapsible=1;marginBottom=0;whiteSpace=wrap;html=1;fontSize=10;" vertex="1" parent="1">
          <mxGeometry x="78.75" y="1060" width="212.5" height="140" as="geometry" />
        </mxCell>
        <mxCell id="OqtR3Mtmg-c2K8xWfE8R-33" value="groups：账户" style="text;strokeColor=none;fillColor=none;align=left;verticalAlign=middle;spacingLeft=4;spacingRight=4;overflow=hidden;points=[[0,0.5],[1,0.5]];portConstraint=eastwest;rotatable=0;whiteSpace=wrap;html=1;fontSize=10;" vertex="1" parent="OqtR3Mtmg-c2K8xWfE8R-32">
          <mxGeometry y="30" width="212.5" height="30" as="geometry" />
        </mxCell>
        <mxCell id="OqtR3Mtmg-c2K8xWfE8R-34" value="个人账户信息C&lt;span style=&quot;white-space: pre;&quot;&gt;&#x9;&lt;/span&gt;（C,{账户}）" style="text;strokeColor=none;fillColor=none;align=left;verticalAlign=middle;spacingLeft=4;spacingRight=4;overflow=hidden;points=[[0,0.5],[1,0.5]];portConstraint=eastwest;rotatable=0;whiteSpace=wrap;html=1;fontSize=10;" vertex="1" parent="OqtR3Mtmg-c2K8xWfE8R-32">
          <mxGeometry y="60" width="212.5" height="40" as="geometry" />
        </mxCell>
        <mxCell id="OqtR3Mtmg-c2K8xWfE8R-155" value="可读：用户、交易、财务分析、借贷、客服" style="text;strokeColor=none;fillColor=none;align=left;verticalAlign=middle;spacingLeft=4;spacingRight=4;overflow=hidden;points=[[0,0.5],[1,0.5]];portConstraint=eastwest;rotatable=0;whiteSpace=wrap;html=1;fontSize=10;" vertex="1" parent="OqtR3Mtmg-c2K8xWfE8R-32">
          <mxGeometry y="100" width="212.5" height="40" as="geometry" />
        </mxCell>
        <mxCell id="OqtR3Mtmg-c2K8xWfE8R-39" style="edgeStyle=orthogonalEdgeStyle;rounded=0;orthogonalLoop=1;jettySize=auto;html=1;exitX=0.5;exitY=1;exitDx=0;exitDy=0;entryX=0.5;entryY=0;entryDx=0;entryDy=0;fontSize=10;" edge="1" parent="1" source="OqtR3Mtmg-c2K8xWfE8R-36" target="OqtR3Mtmg-c2K8xWfE8R-37">
          <mxGeometry relative="1" as="geometry" />
        </mxCell>
        <mxCell id="OqtR3Mtmg-c2K8xWfE8R-41" style="edgeStyle=orthogonalEdgeStyle;rounded=0;orthogonalLoop=1;jettySize=auto;html=1;exitX=0.5;exitY=1;exitDx=0;exitDy=0;fontSize=10;" edge="1" parent="1" source="OqtR3Mtmg-c2K8xWfE8R-36" target="OqtR3Mtmg-c2K8xWfE8R-40">
          <mxGeometry relative="1" as="geometry" />
        </mxCell>
        <mxCell id="OqtR3Mtmg-c2K8xWfE8R-82" style="edgeStyle=orthogonalEdgeStyle;rounded=0;orthogonalLoop=1;jettySize=auto;html=1;exitX=0.5;exitY=1;exitDx=0;exitDy=0;" edge="1" parent="1" source="OqtR3Mtmg-c2K8xWfE8R-36" target="OqtR3Mtmg-c2K8xWfE8R-81">
          <mxGeometry relative="1" as="geometry" />
        </mxCell>
        <mxCell id="OqtR3Mtmg-c2K8xWfE8R-36" value="用户" style="rounded=0;whiteSpace=wrap;html=1;fontSize=10;" vertex="1" parent="1">
          <mxGeometry x="520" y="720" width="55" height="30" as="geometry" />
        </mxCell>
        <mxCell id="OqtR3Mtmg-c2K8xWfE8R-43" style="edgeStyle=orthogonalEdgeStyle;rounded=0;orthogonalLoop=1;jettySize=auto;html=1;exitX=0.5;exitY=1;exitDx=0;exitDy=0;entryX=0.5;entryY=0;entryDx=0;entryDy=0;fontSize=10;" edge="1" parent="1" source="OqtR3Mtmg-c2K8xWfE8R-37" target="OqtR3Mtmg-c2K8xWfE8R-42">
          <mxGeometry relative="1" as="geometry" />
        </mxCell>
        <mxCell id="OqtR3Mtmg-c2K8xWfE8R-67" style="edgeStyle=orthogonalEdgeStyle;rounded=0;orthogonalLoop=1;jettySize=auto;html=1;exitX=0.5;exitY=1;exitDx=0;exitDy=0;entryX=0.5;entryY=0;entryDx=0;entryDy=0;" edge="1" parent="1" source="OqtR3Mtmg-c2K8xWfE8R-37" target="OqtR3Mtmg-c2K8xWfE8R-66">
          <mxGeometry relative="1" as="geometry" />
        </mxCell>
        <mxCell id="OqtR3Mtmg-c2K8xWfE8R-69" style="edgeStyle=orthogonalEdgeStyle;rounded=0;orthogonalLoop=1;jettySize=auto;html=1;exitX=0.5;exitY=1;exitDx=0;exitDy=0;entryX=0.5;entryY=0;entryDx=0;entryDy=0;" edge="1" parent="1" source="OqtR3Mtmg-c2K8xWfE8R-37" target="OqtR3Mtmg-c2K8xWfE8R-68">
          <mxGeometry relative="1" as="geometry" />
        </mxCell>
        <mxCell id="OqtR3Mtmg-c2K8xWfE8R-37" value="读group" style="rounded=0;whiteSpace=wrap;html=1;fontSize=10;" vertex="1" parent="1">
          <mxGeometry x="518" y="790" width="60" height="30" as="geometry" />
        </mxCell>
        <mxCell id="OqtR3Mtmg-c2K8xWfE8R-40" value="写group" style="rounded=0;whiteSpace=wrap;html=1;fontSize=10;" vertex="1" parent="1">
          <mxGeometry x="608" y="790" width="60" height="30" as="geometry" />
        </mxCell>
        <mxCell id="OqtR3Mtmg-c2K8xWfE8R-42" value="账户" style="rounded=0;whiteSpace=wrap;html=1;fontSize=10;" vertex="1" parent="1">
          <mxGeometry x="533" y="860" width="30" height="30" as="geometry" />
        </mxCell>
        <mxCell id="OqtR3Mtmg-c2K8xWfE8R-46" value="交易表" style="swimlane;fontStyle=0;childLayout=stackLayout;horizontal=1;startSize=30;horizontalStack=0;resizeParent=1;resizeParentMax=0;resizeLast=0;collapsible=1;marginBottom=0;whiteSpace=wrap;html=1;fontSize=10;" vertex="1" parent="1">
          <mxGeometry x="82.5" y="1240" width="207.5" height="130" as="geometry" />
        </mxCell>
        <mxCell id="OqtR3Mtmg-c2K8xWfE8R-47" value="groups：交易" style="text;strokeColor=none;fillColor=none;align=left;verticalAlign=middle;spacingLeft=4;spacingRight=4;overflow=hidden;points=[[0,0.5],[1,0.5]];portConstraint=eastwest;rotatable=0;whiteSpace=wrap;html=1;fontSize=10;" vertex="1" parent="OqtR3Mtmg-c2K8xWfE8R-46">
          <mxGeometry y="30" width="207.5" height="40" as="geometry" />
        </mxCell>
        <mxCell id="OqtR3Mtmg-c2K8xWfE8R-48" value="小额交易C&lt;span style=&quot;white-space: pre;&quot;&gt;&#x9;&lt;/span&gt;（C, {交易}）" style="text;strokeColor=none;fillColor=none;align=left;verticalAlign=middle;spacingLeft=4;spacingRight=4;overflow=hidden;points=[[0,0.5],[1,0.5]];portConstraint=eastwest;rotatable=0;whiteSpace=wrap;html=1;fontSize=10;" vertex="1" parent="OqtR3Mtmg-c2K8xWfE8R-46">
          <mxGeometry y="70" width="207.5" height="30" as="geometry" />
        </mxCell>
        <mxCell id="OqtR3Mtmg-c2K8xWfE8R-93" value="大额交易S&lt;span style=&quot;white-space: pre;&quot;&gt;&#x9;&lt;/span&gt;（S, {高级交易}）" style="text;strokeColor=none;fillColor=none;align=left;verticalAlign=middle;spacingLeft=4;spacingRight=4;overflow=hidden;points=[[0,0.5],[1,0.5]];portConstraint=eastwest;rotatable=0;whiteSpace=wrap;html=1;fontSize=10;" vertex="1" parent="OqtR3Mtmg-c2K8xWfE8R-46">
          <mxGeometry y="100" width="207.5" height="30" as="geometry" />
        </mxCell>
        <mxCell id="OqtR3Mtmg-c2K8xWfE8R-49" value="初级交易" style="rounded=0;whiteSpace=wrap;html=1;fontSize=10;" vertex="1" parent="1">
          <mxGeometry x="232.5" y="600" width="60" height="30" as="geometry" />
        </mxCell>
        <mxCell id="OqtR3Mtmg-c2K8xWfE8R-53" style="edgeStyle=orthogonalEdgeStyle;rounded=0;orthogonalLoop=1;jettySize=auto;html=1;exitX=0.5;exitY=1;exitDx=0;exitDy=0;entryX=0.5;entryY=0;entryDx=0;entryDy=0;fontSize=10;" edge="1" parent="1" source="OqtR3Mtmg-c2K8xWfE8R-55" target="OqtR3Mtmg-c2K8xWfE8R-57">
          <mxGeometry relative="1" as="geometry" />
        </mxCell>
        <mxCell id="OqtR3Mtmg-c2K8xWfE8R-54" style="edgeStyle=orthogonalEdgeStyle;rounded=0;orthogonalLoop=1;jettySize=auto;html=1;exitX=0.5;exitY=1;exitDx=0;exitDy=0;fontSize=10;" edge="1" parent="1" source="OqtR3Mtmg-c2K8xWfE8R-55" target="OqtR3Mtmg-c2K8xWfE8R-58">
          <mxGeometry relative="1" as="geometry" />
        </mxCell>
        <mxCell id="OqtR3Mtmg-c2K8xWfE8R-97" style="edgeStyle=orthogonalEdgeStyle;rounded=0;orthogonalLoop=1;jettySize=auto;html=1;exitX=0.5;exitY=1;exitDx=0;exitDy=0;entryX=0.5;entryY=0;entryDx=0;entryDy=0;" edge="1" parent="1" source="OqtR3Mtmg-c2K8xWfE8R-55" target="OqtR3Mtmg-c2K8xWfE8R-96">
          <mxGeometry relative="1" as="geometry" />
        </mxCell>
        <mxCell id="OqtR3Mtmg-c2K8xWfE8R-55" value="初级交易员" style="rounded=0;whiteSpace=wrap;html=1;fontSize=10;" vertex="1" parent="1">
          <mxGeometry x="483" y="1220" width="70" height="30" as="geometry" />
        </mxCell>
        <mxCell id="OqtR3Mtmg-c2K8xWfE8R-56" style="edgeStyle=orthogonalEdgeStyle;rounded=0;orthogonalLoop=1;jettySize=auto;html=1;exitX=0.5;exitY=1;exitDx=0;exitDy=0;entryX=0.5;entryY=0;entryDx=0;entryDy=0;fontSize=10;" edge="1" parent="1" source="OqtR3Mtmg-c2K8xWfE8R-57" target="OqtR3Mtmg-c2K8xWfE8R-59">
          <mxGeometry relative="1" as="geometry" />
        </mxCell>
        <mxCell id="OqtR3Mtmg-c2K8xWfE8R-100" style="edgeStyle=orthogonalEdgeStyle;rounded=0;orthogonalLoop=1;jettySize=auto;html=1;exitX=0.5;exitY=1;exitDx=0;exitDy=0;entryX=0.5;entryY=0;entryDx=0;entryDy=0;" edge="1" parent="1" source="OqtR3Mtmg-c2K8xWfE8R-57" target="OqtR3Mtmg-c2K8xWfE8R-99">
          <mxGeometry relative="1" as="geometry" />
        </mxCell>
        <mxCell id="OqtR3Mtmg-c2K8xWfE8R-121" style="edgeStyle=orthogonalEdgeStyle;rounded=0;orthogonalLoop=1;jettySize=auto;html=1;exitX=0.5;exitY=1;exitDx=0;exitDy=0;entryX=0.5;entryY=0;entryDx=0;entryDy=0;" edge="1" parent="1" source="OqtR3Mtmg-c2K8xWfE8R-57" target="OqtR3Mtmg-c2K8xWfE8R-119">
          <mxGeometry relative="1" as="geometry" />
        </mxCell>
        <mxCell id="OqtR3Mtmg-c2K8xWfE8R-57" value="读group" style="rounded=0;whiteSpace=wrap;html=1;fontSize=10;" vertex="1" parent="1">
          <mxGeometry x="488" y="1290" width="60" height="30" as="geometry" />
        </mxCell>
        <mxCell id="OqtR3Mtmg-c2K8xWfE8R-114" style="edgeStyle=orthogonalEdgeStyle;rounded=0;orthogonalLoop=1;jettySize=auto;html=1;exitX=0.5;exitY=1;exitDx=0;exitDy=0;entryX=0.5;entryY=0;entryDx=0;entryDy=0;" edge="1" parent="1" source="OqtR3Mtmg-c2K8xWfE8R-58" target="OqtR3Mtmg-c2K8xWfE8R-113">
          <mxGeometry relative="1" as="geometry" />
        </mxCell>
        <mxCell id="OqtR3Mtmg-c2K8xWfE8R-58" value="写group" style="rounded=0;whiteSpace=wrap;html=1;fontSize=10;" vertex="1" parent="1">
          <mxGeometry x="578" y="1290" width="60" height="30" as="geometry" />
        </mxCell>
        <mxCell id="OqtR3Mtmg-c2K8xWfE8R-59" value="交易" style="rounded=0;whiteSpace=wrap;html=1;fontSize=10;" vertex="1" parent="1">
          <mxGeometry x="491.5" y="1360" width="41" height="30" as="geometry" />
        </mxCell>
        <mxCell id="OqtR3Mtmg-c2K8xWfE8R-60" value="财报表" style="swimlane;fontStyle=0;childLayout=stackLayout;horizontal=1;startSize=30;horizontalStack=0;resizeParent=1;resizeParentMax=0;resizeLast=0;collapsible=1;marginBottom=0;whiteSpace=wrap;html=1;fontSize=10;" vertex="1" parent="1">
          <mxGeometry x="77.5" y="850" width="215" height="180" as="geometry" />
        </mxCell>
        <mxCell id="OqtR3Mtmg-c2K8xWfE8R-61" value="groups：财报" style="text;strokeColor=none;fillColor=none;align=left;verticalAlign=middle;spacingLeft=4;spacingRight=4;overflow=hidden;points=[[0,0.5],[1,0.5]];portConstraint=eastwest;rotatable=0;whiteSpace=wrap;html=1;fontSize=10;" vertex="1" parent="OqtR3Mtmg-c2K8xWfE8R-60">
          <mxGeometry y="30" width="215" height="30" as="geometry" />
        </mxCell>
        <mxCell id="OqtR3Mtmg-c2K8xWfE8R-62" value="公开财报U&amp;nbsp; &amp;nbsp; （U,{财报}）" style="text;strokeColor=none;fillColor=none;align=left;verticalAlign=middle;spacingLeft=4;spacingRight=4;overflow=hidden;points=[[0,0.5],[1,0.5]];portConstraint=eastwest;rotatable=0;whiteSpace=wrap;html=1;fontSize=10;" vertex="1" parent="OqtR3Mtmg-c2K8xWfE8R-60">
          <mxGeometry y="60" width="215" height="30" as="geometry" />
        </mxCell>
        <mxCell id="OqtR3Mtmg-c2K8xWfE8R-88" value="内部财报C&amp;nbsp; &amp;nbsp; （C,{财报}）" style="text;strokeColor=none;fillColor=none;align=left;verticalAlign=middle;spacingLeft=4;spacingRight=4;overflow=hidden;points=[[0,0.5],[1,0.5]];portConstraint=eastwest;rotatable=0;whiteSpace=wrap;html=1;fontSize=10;" vertex="1" parent="OqtR3Mtmg-c2K8xWfE8R-60">
          <mxGeometry y="90" width="215" height="30" as="geometry" />
        </mxCell>
        <mxCell id="OqtR3Mtmg-c2K8xWfE8R-89" value="机密财报S&amp;nbsp; &amp;nbsp; （S,{财报}）" style="text;strokeColor=none;fillColor=none;align=left;verticalAlign=middle;spacingLeft=4;spacingRight=4;overflow=hidden;points=[[0,0.5],[1,0.5]];portConstraint=eastwest;rotatable=0;whiteSpace=wrap;html=1;fontSize=10;" vertex="1" parent="OqtR3Mtmg-c2K8xWfE8R-60">
          <mxGeometry y="120" width="215" height="30" as="geometry" />
        </mxCell>
        <mxCell id="OqtR3Mtmg-c2K8xWfE8R-154" value="绝密财报TS&amp;nbsp; &amp;nbsp; （TS,{财报}）" style="text;strokeColor=none;fillColor=none;align=left;verticalAlign=middle;spacingLeft=4;spacingRight=4;overflow=hidden;points=[[0,0.5],[1,0.5]];portConstraint=eastwest;rotatable=0;whiteSpace=wrap;html=1;fontSize=10;" vertex="1" parent="OqtR3Mtmg-c2K8xWfE8R-60">
          <mxGeometry y="150" width="215" height="30" as="geometry" />
        </mxCell>
        <mxCell id="OqtR3Mtmg-c2K8xWfE8R-63" value="借贷表" style="swimlane;fontStyle=0;childLayout=stackLayout;horizontal=1;startSize=30;horizontalStack=0;resizeParent=1;resizeParentMax=0;resizeLast=0;collapsible=1;marginBottom=0;whiteSpace=wrap;html=1;fontSize=10;" vertex="1" parent="1">
          <mxGeometry x="88" y="1540" width="205" height="150" as="geometry" />
        </mxCell>
        <mxCell id="OqtR3Mtmg-c2K8xWfE8R-64" value="groups：借贷" style="text;strokeColor=none;fillColor=none;align=left;verticalAlign=middle;spacingLeft=4;spacingRight=4;overflow=hidden;points=[[0,0.5],[1,0.5]];portConstraint=eastwest;rotatable=0;whiteSpace=wrap;html=1;fontSize=10;" vertex="1" parent="OqtR3Mtmg-c2K8xWfE8R-63">
          <mxGeometry y="30" width="205" height="40" as="geometry" />
        </mxCell>
        <mxCell id="OqtR3Mtmg-c2K8xWfE8R-90" value="小额借贷C" style="text;strokeColor=none;fillColor=none;align=left;verticalAlign=middle;spacingLeft=4;spacingRight=4;overflow=hidden;points=[[0,0.5],[1,0.5]];portConstraint=eastwest;rotatable=0;whiteSpace=wrap;html=1;fontSize=10;" vertex="1" parent="OqtR3Mtmg-c2K8xWfE8R-63">
          <mxGeometry y="70" width="205" height="40" as="geometry" />
        </mxCell>
        <mxCell id="OqtR3Mtmg-c2K8xWfE8R-153" value="大额借贷C" style="text;strokeColor=none;fillColor=none;align=left;verticalAlign=middle;spacingLeft=4;spacingRight=4;overflow=hidden;points=[[0,0.5],[1,0.5]];portConstraint=eastwest;rotatable=0;whiteSpace=wrap;html=1;fontSize=10;" vertex="1" parent="OqtR3Mtmg-c2K8xWfE8R-63">
          <mxGeometry y="110" width="205" height="40" as="geometry" />
        </mxCell>
        <mxCell id="OqtR3Mtmg-c2K8xWfE8R-66" value="财报" style="rounded=0;whiteSpace=wrap;html=1;fontSize=10;" vertex="1" parent="1">
          <mxGeometry x="496" y="860" width="32" height="30" as="geometry" />
        </mxCell>
        <mxCell id="OqtR3Mtmg-c2K8xWfE8R-68" value="交易" style="rounded=0;whiteSpace=wrap;html=1;fontSize=10;" vertex="1" parent="1">
          <mxGeometry x="568" y="860" width="32" height="30" as="geometry" />
        </mxCell>
        <mxCell id="OqtR3Mtmg-c2K8xWfE8R-70" style="edgeStyle=orthogonalEdgeStyle;rounded=0;orthogonalLoop=1;jettySize=auto;html=1;exitX=0.5;exitY=1;exitDx=0;exitDy=0;entryX=0.5;entryY=0;entryDx=0;entryDy=0;fontSize=10;" edge="1" parent="1" source="OqtR3Mtmg-c2K8xWfE8R-72" target="OqtR3Mtmg-c2K8xWfE8R-76">
          <mxGeometry relative="1" as="geometry" />
        </mxCell>
        <mxCell id="OqtR3Mtmg-c2K8xWfE8R-71" style="edgeStyle=orthogonalEdgeStyle;rounded=0;orthogonalLoop=1;jettySize=auto;html=1;exitX=0.5;exitY=1;exitDx=0;exitDy=0;fontSize=10;" edge="1" parent="1" source="OqtR3Mtmg-c2K8xWfE8R-72" target="OqtR3Mtmg-c2K8xWfE8R-77">
          <mxGeometry relative="1" as="geometry" />
        </mxCell>
        <mxCell id="OqtR3Mtmg-c2K8xWfE8R-84" style="edgeStyle=orthogonalEdgeStyle;rounded=0;orthogonalLoop=1;jettySize=auto;html=1;exitX=0.5;exitY=1;exitDx=0;exitDy=0;entryX=0.5;entryY=0;entryDx=0;entryDy=0;" edge="1" parent="1" source="OqtR3Mtmg-c2K8xWfE8R-72" target="OqtR3Mtmg-c2K8xWfE8R-83">
          <mxGeometry relative="1" as="geometry" />
        </mxCell>
        <mxCell id="OqtR3Mtmg-c2K8xWfE8R-72" value="初级交易员" style="rounded=0;whiteSpace=wrap;html=1;fontSize=10;" vertex="1" parent="1">
          <mxGeometry x="844" y="730" width="68" height="30" as="geometry" />
        </mxCell>
        <mxCell id="OqtR3Mtmg-c2K8xWfE8R-73" style="edgeStyle=orthogonalEdgeStyle;rounded=0;orthogonalLoop=1;jettySize=auto;html=1;exitX=0.5;exitY=1;exitDx=0;exitDy=0;entryX=0.5;entryY=0;entryDx=0;entryDy=0;fontSize=10;" edge="1" parent="1" source="OqtR3Mtmg-c2K8xWfE8R-76" target="OqtR3Mtmg-c2K8xWfE8R-78">
          <mxGeometry relative="1" as="geometry" />
        </mxCell>
        <mxCell id="OqtR3Mtmg-c2K8xWfE8R-74" style="edgeStyle=orthogonalEdgeStyle;rounded=0;orthogonalLoop=1;jettySize=auto;html=1;exitX=0.5;exitY=1;exitDx=0;exitDy=0;entryX=0.5;entryY=0;entryDx=0;entryDy=0;" edge="1" parent="1" source="OqtR3Mtmg-c2K8xWfE8R-76" target="OqtR3Mtmg-c2K8xWfE8R-79">
          <mxGeometry relative="1" as="geometry" />
        </mxCell>
        <mxCell id="OqtR3Mtmg-c2K8xWfE8R-75" style="edgeStyle=orthogonalEdgeStyle;rounded=0;orthogonalLoop=1;jettySize=auto;html=1;exitX=0.5;exitY=1;exitDx=0;exitDy=0;entryX=0.5;entryY=0;entryDx=0;entryDy=0;" edge="1" parent="1" source="OqtR3Mtmg-c2K8xWfE8R-76" target="OqtR3Mtmg-c2K8xWfE8R-80">
          <mxGeometry relative="1" as="geometry" />
        </mxCell>
        <mxCell id="OqtR3Mtmg-c2K8xWfE8R-76" value="读group" style="rounded=0;whiteSpace=wrap;html=1;fontSize=10;" vertex="1" parent="1">
          <mxGeometry x="848" y="800" width="60" height="30" as="geometry" />
        </mxCell>
        <mxCell id="OqtR3Mtmg-c2K8xWfE8R-86" style="edgeStyle=orthogonalEdgeStyle;rounded=0;orthogonalLoop=1;jettySize=auto;html=1;exitX=0.5;exitY=1;exitDx=0;exitDy=0;entryX=0.5;entryY=0;entryDx=0;entryDy=0;" edge="1" parent="1" source="OqtR3Mtmg-c2K8xWfE8R-77" target="OqtR3Mtmg-c2K8xWfE8R-85">
          <mxGeometry relative="1" as="geometry" />
        </mxCell>
        <mxCell id="OqtR3Mtmg-c2K8xWfE8R-77" value="写group" style="rounded=0;whiteSpace=wrap;html=1;fontSize=10;" vertex="1" parent="1">
          <mxGeometry x="936" y="800" width="60" height="30" as="geometry" />
        </mxCell>
        <mxCell id="OqtR3Mtmg-c2K8xWfE8R-78" value="账户" style="rounded=0;whiteSpace=wrap;html=1;fontSize=10;" vertex="1" parent="1">
          <mxGeometry x="820" y="870" width="36" height="30" as="geometry" />
        </mxCell>
        <mxCell id="OqtR3Mtmg-c2K8xWfE8R-79" value="财报" style="rounded=0;whiteSpace=wrap;html=1;fontSize=10;" vertex="1" parent="1">
          <mxGeometry x="860" y="870" width="36" height="30" as="geometry" />
        </mxCell>
        <mxCell id="OqtR3Mtmg-c2K8xWfE8R-80" value="交易" style="rounded=0;whiteSpace=wrap;html=1;fontSize=10;" vertex="1" parent="1">
          <mxGeometry x="900" y="870" width="36" height="30" as="geometry" />
        </mxCell>
        <mxCell id="OqtR3Mtmg-c2K8xWfE8R-81" value="label: U" style="rounded=0;whiteSpace=wrap;html=1;fontSize=10;" vertex="1" parent="1">
          <mxGeometry x="438" y="790" width="60" height="30" as="geometry" />
        </mxCell>
        <mxCell id="OqtR3Mtmg-c2K8xWfE8R-83" value="label: C" style="rounded=0;whiteSpace=wrap;html=1;fontSize=10;" vertex="1" parent="1">
          <mxGeometry x="760" y="800" width="60" height="30" as="geometry" />
        </mxCell>
        <mxCell id="OqtR3Mtmg-c2K8xWfE8R-85" value="交易" style="rounded=0;whiteSpace=wrap;html=1;fontSize=10;" vertex="1" parent="1">
          <mxGeometry x="948" y="870" width="36" height="30" as="geometry" />
        </mxCell>
        <mxCell id="OqtR3Mtmg-c2K8xWfE8R-91" value="用户（U, {账户, 财报,交易}）" style="text;html=1;align=center;verticalAlign=middle;resizable=0;points=[];autosize=1;strokeColor=none;fillColor=none;" vertex="1" parent="1">
          <mxGeometry x="458" y="900" width="180" height="30" as="geometry" />
        </mxCell>
        <mxCell id="OqtR3Mtmg-c2K8xWfE8R-94" value="&lt;b&gt;Labels：Unclassified、Confidential、Secret、Top Secret&lt;/b&gt;" style="text;html=1;align=center;verticalAlign=middle;whiteSpace=wrap;rounded=0;" vertex="1" parent="1">
          <mxGeometry x="43" y="790" width="340" height="30" as="geometry" />
        </mxCell>
        <mxCell id="OqtR3Mtmg-c2K8xWfE8R-96" value="label: C" style="rounded=0;whiteSpace=wrap;html=1;fontSize=10;" vertex="1" parent="1">
          <mxGeometry x="409" y="1290" width="60" height="30" as="geometry" />
        </mxCell>
        <mxCell id="OqtR3Mtmg-c2K8xWfE8R-99" value="账户" style="rounded=0;whiteSpace=wrap;html=1;fontSize=10;" vertex="1" parent="1">
          <mxGeometry x="442" y="1360" width="41" height="30" as="geometry" />
        </mxCell>
        <mxCell id="OqtR3Mtmg-c2K8xWfE8R-101" style="edgeStyle=orthogonalEdgeStyle;rounded=0;orthogonalLoop=1;jettySize=auto;html=1;exitX=0.5;exitY=1;exitDx=0;exitDy=0;entryX=0.5;entryY=0;entryDx=0;entryDy=0;fontSize=10;" edge="1" parent="1" source="OqtR3Mtmg-c2K8xWfE8R-104" target="OqtR3Mtmg-c2K8xWfE8R-107">
          <mxGeometry relative="1" as="geometry" />
        </mxCell>
        <mxCell id="OqtR3Mtmg-c2K8xWfE8R-102" style="edgeStyle=orthogonalEdgeStyle;rounded=0;orthogonalLoop=1;jettySize=auto;html=1;exitX=0.5;exitY=1;exitDx=0;exitDy=0;fontSize=10;" edge="1" parent="1" source="OqtR3Mtmg-c2K8xWfE8R-104" target="OqtR3Mtmg-c2K8xWfE8R-108">
          <mxGeometry relative="1" as="geometry" />
        </mxCell>
        <mxCell id="OqtR3Mtmg-c2K8xWfE8R-103" style="edgeStyle=orthogonalEdgeStyle;rounded=0;orthogonalLoop=1;jettySize=auto;html=1;exitX=0.5;exitY=1;exitDx=0;exitDy=0;entryX=0.5;entryY=0;entryDx=0;entryDy=0;" edge="1" parent="1" source="OqtR3Mtmg-c2K8xWfE8R-104" target="OqtR3Mtmg-c2K8xWfE8R-110">
          <mxGeometry relative="1" as="geometry" />
        </mxCell>
        <mxCell id="OqtR3Mtmg-c2K8xWfE8R-104" value="高级交易员" style="rounded=0;whiteSpace=wrap;html=1;fontSize=10;" vertex="1" parent="1">
          <mxGeometry x="765" y="1220" width="70" height="30" as="geometry" />
        </mxCell>
        <mxCell id="OqtR3Mtmg-c2K8xWfE8R-105" style="edgeStyle=orthogonalEdgeStyle;rounded=0;orthogonalLoop=1;jettySize=auto;html=1;exitX=0.5;exitY=1;exitDx=0;exitDy=0;entryX=0.5;entryY=0;entryDx=0;entryDy=0;fontSize=10;" edge="1" parent="1" source="OqtR3Mtmg-c2K8xWfE8R-107" target="OqtR3Mtmg-c2K8xWfE8R-109">
          <mxGeometry relative="1" as="geometry" />
        </mxCell>
        <mxCell id="OqtR3Mtmg-c2K8xWfE8R-106" style="edgeStyle=orthogonalEdgeStyle;rounded=0;orthogonalLoop=1;jettySize=auto;html=1;exitX=0.5;exitY=1;exitDx=0;exitDy=0;entryX=0.5;entryY=0;entryDx=0;entryDy=0;" edge="1" parent="1" source="OqtR3Mtmg-c2K8xWfE8R-107" target="OqtR3Mtmg-c2K8xWfE8R-112">
          <mxGeometry relative="1" as="geometry" />
        </mxCell>
        <mxCell id="OqtR3Mtmg-c2K8xWfE8R-107" value="读group" style="rounded=0;whiteSpace=wrap;html=1;fontSize=10;" vertex="1" parent="1">
          <mxGeometry x="769" y="1290" width="60" height="30" as="geometry" />
        </mxCell>
        <mxCell id="OqtR3Mtmg-c2K8xWfE8R-117" style="edgeStyle=orthogonalEdgeStyle;rounded=0;orthogonalLoop=1;jettySize=auto;html=1;exitX=0.5;exitY=1;exitDx=0;exitDy=0;entryX=0.5;entryY=0;entryDx=0;entryDy=0;" edge="1" parent="1" source="OqtR3Mtmg-c2K8xWfE8R-108" target="OqtR3Mtmg-c2K8xWfE8R-116">
          <mxGeometry relative="1" as="geometry" />
        </mxCell>
        <mxCell id="OqtR3Mtmg-c2K8xWfE8R-108" value="写group" style="rounded=0;whiteSpace=wrap;html=1;fontSize=10;" vertex="1" parent="1">
          <mxGeometry x="859" y="1290" width="60" height="30" as="geometry" />
        </mxCell>
        <mxCell id="OqtR3Mtmg-c2K8xWfE8R-109" value="高级交易" style="rounded=0;whiteSpace=wrap;html=1;fontSize=10;" vertex="1" parent="1">
          <mxGeometry x="795.75" y="1360" width="50" height="30" as="geometry" />
        </mxCell>
        <mxCell id="OqtR3Mtmg-c2K8xWfE8R-110" value="label: S" style="rounded=0;whiteSpace=wrap;html=1;fontSize=10;" vertex="1" parent="1">
          <mxGeometry x="690" y="1290" width="60" height="30" as="geometry" />
        </mxCell>
        <mxCell id="OqtR3Mtmg-c2K8xWfE8R-112" value="账户" style="rounded=0;whiteSpace=wrap;html=1;fontSize=10;" vertex="1" parent="1">
          <mxGeometry x="742.5" y="1360" width="41" height="30" as="geometry" />
        </mxCell>
        <mxCell id="OqtR3Mtmg-c2K8xWfE8R-113" value="交易" style="rounded=0;whiteSpace=wrap;html=1;fontSize=10;" vertex="1" parent="1">
          <mxGeometry x="587" y="1360" width="41" height="30" as="geometry" />
        </mxCell>
        <mxCell id="OqtR3Mtmg-c2K8xWfE8R-116" value="高级交易" style="rounded=0;whiteSpace=wrap;html=1;fontSize=10;" vertex="1" parent="1">
          <mxGeometry x="863.25" y="1360" width="51.5" height="30" as="geometry" />
        </mxCell>
        <mxCell id="OqtR3Mtmg-c2K8xWfE8R-118" value="&lt;h1 style=&quot;margin-top: 0px;&quot;&gt;&lt;span style=&quot;font-size: 12px; font-weight: 400; text-align: center; text-wrap: nowrap;&quot;&gt;初级交易员（C, {账户, 交易, 财报}）&lt;/span&gt;&lt;br&gt;&lt;/h1&gt;&lt;p&gt;可读：账户信息、小额交易、公开/内部财报；&lt;br&gt;&lt;br&gt;可写：小额交易&lt;/p&gt;" style="text;html=1;whiteSpace=wrap;overflow=hidden;rounded=0;" vertex="1" parent="1">
          <mxGeometry x="400" y="1410" width="249" height="120" as="geometry" />
        </mxCell>
        <mxCell id="OqtR3Mtmg-c2K8xWfE8R-119" value="财报" style="rounded=0;whiteSpace=wrap;html=1;fontSize=10;" vertex="1" parent="1">
          <mxGeometry x="538" y="1360" width="41" height="30" as="geometry" />
        </mxCell>
        <mxCell id="OqtR3Mtmg-c2K8xWfE8R-122" value="职员表" style="swimlane;fontStyle=0;childLayout=stackLayout;horizontal=1;startSize=30;horizontalStack=0;resizeParent=1;resizeParentMax=0;resizeLast=0;collapsible=1;marginBottom=0;whiteSpace=wrap;html=1;fontSize=10;" vertex="1" parent="1">
          <mxGeometry x="88" y="1750" width="212" height="110" as="geometry" />
        </mxCell>
        <mxCell id="OqtR3Mtmg-c2K8xWfE8R-123" value="groups：职员信息" style="text;strokeColor=none;fillColor=none;align=left;verticalAlign=middle;spacingLeft=4;spacingRight=4;overflow=hidden;points=[[0,0.5],[1,0.5]];portConstraint=eastwest;rotatable=0;whiteSpace=wrap;html=1;fontSize=10;" vertex="1" parent="OqtR3Mtmg-c2K8xWfE8R-122">
          <mxGeometry y="30" width="212" height="40" as="geometry" />
        </mxCell>
        <mxCell id="OqtR3Mtmg-c2K8xWfE8R-124" value="职员信息C" style="text;strokeColor=none;fillColor=none;align=left;verticalAlign=middle;spacingLeft=4;spacingRight=4;overflow=hidden;points=[[0,0.5],[1,0.5]];portConstraint=eastwest;rotatable=0;whiteSpace=wrap;html=1;fontSize=10;" vertex="1" parent="OqtR3Mtmg-c2K8xWfE8R-122">
          <mxGeometry y="70" width="212" height="40" as="geometry" />
        </mxCell>
        <mxCell id="OqtR3Mtmg-c2K8xWfE8R-125" style="edgeStyle=orthogonalEdgeStyle;rounded=0;orthogonalLoop=1;jettySize=auto;html=1;exitX=0.5;exitY=1;exitDx=0;exitDy=0;entryX=0.5;entryY=0;entryDx=0;entryDy=0;fontSize=10;" edge="1" parent="1" source="OqtR3Mtmg-c2K8xWfE8R-128" target="OqtR3Mtmg-c2K8xWfE8R-132">
          <mxGeometry relative="1" as="geometry" />
        </mxCell>
        <mxCell id="OqtR3Mtmg-c2K8xWfE8R-126" style="edgeStyle=orthogonalEdgeStyle;rounded=0;orthogonalLoop=1;jettySize=auto;html=1;exitX=0.5;exitY=1;exitDx=0;exitDy=0;fontSize=10;" edge="1" parent="1" source="OqtR3Mtmg-c2K8xWfE8R-128" target="OqtR3Mtmg-c2K8xWfE8R-134">
          <mxGeometry relative="1" as="geometry" />
        </mxCell>
        <mxCell id="OqtR3Mtmg-c2K8xWfE8R-127" style="edgeStyle=orthogonalEdgeStyle;rounded=0;orthogonalLoop=1;jettySize=auto;html=1;exitX=0.5;exitY=1;exitDx=0;exitDy=0;entryX=0.5;entryY=0;entryDx=0;entryDy=0;" edge="1" parent="1" source="OqtR3Mtmg-c2K8xWfE8R-128" target="OqtR3Mtmg-c2K8xWfE8R-136">
          <mxGeometry relative="1" as="geometry" />
        </mxCell>
        <mxCell id="OqtR3Mtmg-c2K8xWfE8R-128" value="人事" style="rounded=0;whiteSpace=wrap;html=1;fontSize=10;" vertex="1" parent="1">
          <mxGeometry x="508.5" y="1690" width="70" height="30" as="geometry" />
        </mxCell>
        <mxCell id="OqtR3Mtmg-c2K8xWfE8R-130" style="edgeStyle=orthogonalEdgeStyle;rounded=0;orthogonalLoop=1;jettySize=auto;html=1;exitX=0.5;exitY=1;exitDx=0;exitDy=0;entryX=0.5;entryY=0;entryDx=0;entryDy=0;" edge="1" parent="1" source="OqtR3Mtmg-c2K8xWfE8R-132" target="OqtR3Mtmg-c2K8xWfE8R-137">
          <mxGeometry relative="1" as="geometry" />
        </mxCell>
        <mxCell id="OqtR3Mtmg-c2K8xWfE8R-131" style="edgeStyle=orthogonalEdgeStyle;rounded=0;orthogonalLoop=1;jettySize=auto;html=1;exitX=0.5;exitY=1;exitDx=0;exitDy=0;entryX=0.5;entryY=0;entryDx=0;entryDy=0;" edge="1" parent="1" source="OqtR3Mtmg-c2K8xWfE8R-132" target="OqtR3Mtmg-c2K8xWfE8R-139">
          <mxGeometry relative="1" as="geometry" />
        </mxCell>
        <mxCell id="OqtR3Mtmg-c2K8xWfE8R-132" value="读group" style="rounded=0;whiteSpace=wrap;html=1;fontSize=10;" vertex="1" parent="1">
          <mxGeometry x="512.5" y="1760" width="60" height="30" as="geometry" />
        </mxCell>
        <mxCell id="OqtR3Mtmg-c2K8xWfE8R-133" style="edgeStyle=orthogonalEdgeStyle;rounded=0;orthogonalLoop=1;jettySize=auto;html=1;exitX=0.5;exitY=1;exitDx=0;exitDy=0;entryX=0.5;entryY=0;entryDx=0;entryDy=0;" edge="1" parent="1" source="OqtR3Mtmg-c2K8xWfE8R-134" target="OqtR3Mtmg-c2K8xWfE8R-138">
          <mxGeometry relative="1" as="geometry" />
        </mxCell>
        <mxCell id="OqtR3Mtmg-c2K8xWfE8R-134" value="写group" style="rounded=0;whiteSpace=wrap;html=1;fontSize=10;" vertex="1" parent="1">
          <mxGeometry x="602.5" y="1760" width="60" height="30" as="geometry" />
        </mxCell>
        <mxCell id="OqtR3Mtmg-c2K8xWfE8R-136" value="label: C" style="rounded=0;whiteSpace=wrap;html=1;fontSize=10;" vertex="1" parent="1">
          <mxGeometry x="433.5" y="1760" width="60" height="30" as="geometry" />
        </mxCell>
        <mxCell id="OqtR3Mtmg-c2K8xWfE8R-137" value="职员" style="rounded=0;whiteSpace=wrap;html=1;fontSize=10;" vertex="1" parent="1">
          <mxGeometry x="499" y="1830" width="41" height="30" as="geometry" />
        </mxCell>
        <mxCell id="OqtR3Mtmg-c2K8xWfE8R-138" value="职员" style="rounded=0;whiteSpace=wrap;html=1;fontSize=10;" vertex="1" parent="1">
          <mxGeometry x="611.5" y="1830" width="41" height="30" as="geometry" />
        </mxCell>
        <mxCell id="OqtR3Mtmg-c2K8xWfE8R-139" value="财报" style="rounded=0;whiteSpace=wrap;html=1;fontSize=10;" vertex="1" parent="1">
          <mxGeometry x="548" y="1830" width="41" height="30" as="geometry" />
        </mxCell>
        <mxCell id="OqtR3Mtmg-c2K8xWfE8R-140" style="edgeStyle=orthogonalEdgeStyle;rounded=0;orthogonalLoop=1;jettySize=auto;html=1;exitX=0.5;exitY=1;exitDx=0;exitDy=0;entryX=0.5;entryY=0;entryDx=0;entryDy=0;fontSize=10;" edge="1" parent="1" source="OqtR3Mtmg-c2K8xWfE8R-143" target="OqtR3Mtmg-c2K8xWfE8R-146">
          <mxGeometry relative="1" as="geometry" />
        </mxCell>
        <mxCell id="OqtR3Mtmg-c2K8xWfE8R-141" style="edgeStyle=orthogonalEdgeStyle;rounded=0;orthogonalLoop=1;jettySize=auto;html=1;exitX=0.5;exitY=1;exitDx=0;exitDy=0;fontSize=10;" edge="1" parent="1" source="OqtR3Mtmg-c2K8xWfE8R-143" target="OqtR3Mtmg-c2K8xWfE8R-148">
          <mxGeometry relative="1" as="geometry" />
        </mxCell>
        <mxCell id="OqtR3Mtmg-c2K8xWfE8R-142" style="edgeStyle=orthogonalEdgeStyle;rounded=0;orthogonalLoop=1;jettySize=auto;html=1;exitX=0.5;exitY=1;exitDx=0;exitDy=0;entryX=0.5;entryY=0;entryDx=0;entryDy=0;" edge="1" parent="1" source="OqtR3Mtmg-c2K8xWfE8R-143" target="OqtR3Mtmg-c2K8xWfE8R-149">
          <mxGeometry relative="1" as="geometry" />
        </mxCell>
        <mxCell id="OqtR3Mtmg-c2K8xWfE8R-143" value="人力资源经理" style="rounded=0;whiteSpace=wrap;html=1;fontSize=10;" vertex="1" parent="1">
          <mxGeometry x="795.75" y="1690" width="79.25" height="30" as="geometry" />
        </mxCell>
        <mxCell id="OqtR3Mtmg-c2K8xWfE8R-144" style="edgeStyle=orthogonalEdgeStyle;rounded=0;orthogonalLoop=1;jettySize=auto;html=1;exitX=0.5;exitY=1;exitDx=0;exitDy=0;entryX=0.5;entryY=0;entryDx=0;entryDy=0;" edge="1" parent="1" source="OqtR3Mtmg-c2K8xWfE8R-146" target="OqtR3Mtmg-c2K8xWfE8R-150">
          <mxGeometry relative="1" as="geometry" />
        </mxCell>
        <mxCell id="OqtR3Mtmg-c2K8xWfE8R-145" style="edgeStyle=orthogonalEdgeStyle;rounded=0;orthogonalLoop=1;jettySize=auto;html=1;exitX=0.5;exitY=1;exitDx=0;exitDy=0;entryX=0.5;entryY=0;entryDx=0;entryDy=0;" edge="1" parent="1" source="OqtR3Mtmg-c2K8xWfE8R-146" target="OqtR3Mtmg-c2K8xWfE8R-152">
          <mxGeometry relative="1" as="geometry" />
        </mxCell>
        <mxCell id="OqtR3Mtmg-c2K8xWfE8R-146" value="读group" style="rounded=0;whiteSpace=wrap;html=1;fontSize=10;" vertex="1" parent="1">
          <mxGeometry x="802.5" y="1760" width="60" height="30" as="geometry" />
        </mxCell>
        <mxCell id="OqtR3Mtmg-c2K8xWfE8R-147" style="edgeStyle=orthogonalEdgeStyle;rounded=0;orthogonalLoop=1;jettySize=auto;html=1;exitX=0.5;exitY=1;exitDx=0;exitDy=0;entryX=0.5;entryY=0;entryDx=0;entryDy=0;" edge="1" parent="1" source="OqtR3Mtmg-c2K8xWfE8R-148" target="OqtR3Mtmg-c2K8xWfE8R-151">
          <mxGeometry relative="1" as="geometry" />
        </mxCell>
        <mxCell id="OqtR3Mtmg-c2K8xWfE8R-148" value="写group" style="rounded=0;whiteSpace=wrap;html=1;fontSize=10;" vertex="1" parent="1">
          <mxGeometry x="892.5" y="1760" width="60" height="30" as="geometry" />
        </mxCell>
        <mxCell id="OqtR3Mtmg-c2K8xWfE8R-149" value="label:&amp;nbsp;" style="rounded=0;whiteSpace=wrap;html=1;fontSize=10;" vertex="1" parent="1">
          <mxGeometry x="723.5" y="1760" width="60" height="30" as="geometry" />
        </mxCell>
        <mxCell id="OqtR3Mtmg-c2K8xWfE8R-150" value="职员" style="rounded=0;whiteSpace=wrap;html=1;fontSize=10;" vertex="1" parent="1">
          <mxGeometry x="789" y="1830" width="41" height="30" as="geometry" />
        </mxCell>
        <mxCell id="OqtR3Mtmg-c2K8xWfE8R-151" value="职员" style="rounded=0;whiteSpace=wrap;html=1;fontSize=10;" vertex="1" parent="1">
          <mxGeometry x="902" y="1830" width="41" height="30" as="geometry" />
        </mxCell>
        <mxCell id="OqtR3Mtmg-c2K8xWfE8R-152" value="财报" style="rounded=0;whiteSpace=wrap;html=1;fontSize=10;" vertex="1" parent="1">
          <mxGeometry x="838" y="1830" width="41" height="30" as="geometry" />
        </mxCell>
        <mxCell id="OqtR3Mtmg-c2K8xWfE8R-156" value="&lt;h1 style=&quot;margin-top: 0px;&quot;&gt;&lt;span style=&quot;font-size: 12px; font-weight: 400; text-align: center; text-wrap: nowrap;&quot;&gt;高级交易员（S, {账户, 高级交易}）&lt;/span&gt;&lt;br&gt;&lt;/h1&gt;&lt;p&gt;可读：账户信息、小额/大额交易、公开/内部财报；&lt;br&gt;&lt;br&gt;可写：大额交易&lt;/p&gt;" style="text;html=1;whiteSpace=wrap;overflow=hidden;rounded=0;" vertex="1" parent="1">
          <mxGeometry x="678.75" y="1410" width="284" height="120" as="geometry" />
        </mxCell>
      </root>
    </mxGraphModel>
  </diagram>
</mxfile>
